<?xml version="1.0" encoding="UTF-8"?>
<svg width="24px" height="24px" viewBox="0 0 24 24" version="1.1" xmlns="http://www.w3.org/2000/svg" xmlns:xlink="http://www.w3.org/1999/xlink">
    <title>search</title>
    <g id="search" stroke="none" stroke-width="1" fill="none" fill-rule="evenodd">
        <g id="􀊫" transform="translate(3, 3)" fill="#EDECEC" fill-rule="nonzero">
            <path d="M0,7.39157341 C0,6.37301674 0.190897396,5.41671361 0.572692188,4.52266402 C0.95448698,3.62861443 1.48460057,2.8436851 2.16303297,2.16787603 C2.84146536,1.49206696 3.62639469,0.961802023 4.51782096,0.577081214 C5.40924722,0.192360405 6.36423869,0 7.38279536,0 C8.40659867,0 9.36421346,0.192360405 10.2556397,0.577081214 C11.147066,0.961802023 11.9319953,1.49206696 12.6104277,2.16787603 C13.2888601,2.8436851 13.8191251,3.62861443 14.2012225,4.52266402 C14.58332,5.41671361 14.7743688,6.37301674 14.7743688,7.39157341 C14.7743688,8.2077304 14.6474402,8.98524379 14.3935829,9.72411358 C14.1397257,10.4629834 13.7861821,11.1360178 13.3329522,11.7432168 L17.6558398,16.0827525 C17.7682393,16.2016093 17.8536991,16.3349701 17.9122195,16.4828349 C17.9707398,16.6306996 18,16.785047 18,16.9458771 C18,17.1805638 17.9479371,17.3900011 17.8438112,17.5741888 C17.7396854,17.7583766 17.5971429,17.9039711 17.4161839,18.0109726 C17.2352249,18.117974 17.0270993,18.1714747 16.7918072,18.1714747 C16.6297663,18.1714747 16.4716101,18.1436775 16.3173383,18.0880832 C16.1630666,18.0324889 16.0270573,17.9458687 15.9093103,17.8282226 L11.5564562,13.4665904 C10.9633827,13.8811768 10.315169,14.2042495 9.61181506,14.4358084 C8.90846107,14.6673673 8.1654545,14.7831468 7.38279536,14.7831468 C6.36423869,14.7831468 5.40924722,14.5922242 4.51782096,14.210379 C3.62639469,13.8285337 2.84146536,13.2982435 2.16303297,12.6195085 C1.48460057,11.9407734 0.95448698,11.1544063 0.572692188,10.2604071 C0.190897396,9.36640798 0,8.41013007 0,7.39157341 Z M1.76151278,7.39157341 C1.76151278,8.16838052 1.90690557,8.89652998 2.19769114,9.57602179 C2.48847671,10.2555136 2.89284723,10.8526481 3.41080272,11.3674254 C3.92875821,11.8822026 4.52589273,12.284984 5.20220628,12.5757696 C5.87851984,12.8665551 6.60538286,13.0119479 7.38279536,13.0119479 C8.15960247,13.0119479 8.88762581,12.8665551 9.56686538,12.5757696 C10.2461049,12.284984 10.8432395,11.8822026 11.3582689,11.3674254 C11.8732984,10.8526481 12.2762312,10.2555136 12.5670672,9.57602179 C12.8579032,8.89652998 13.0033212,8.16838052 13.0033212,7.39157341 C13.0033212,6.61416091 12.8579032,5.88583488 12.5670672,5.20659531 C12.2762312,4.52735574 11.8732984,3.93022122 11.3582689,3.41519175 C10.8432395,2.90016228 10.2461049,2.49738088 9.56686538,2.20684755 C8.88762581,1.91631423 8.15960247,1.77104756 7.38279536,1.77104756 C6.60538286,1.77104756 5.87851984,1.91631423 5.20220628,2.20684755 C4.52589273,2.49738088 3.92875821,2.90016228 3.41080272,3.41519175 C2.89284723,3.93022122 2.48847671,4.52735574 2.19769114,5.20659531 C1.90690557,5.88583488 1.76151278,6.61416091 1.76151278,7.39157341 Z" id="Shape"></path>
        </g>
    </g>
</svg>