<svg width="16px" height="16px" viewBox="0 0 16 16" version="1.1" xmlns="http://www.w3.org/2000/svg" xmlns:xlink="http://www.w3.org/1999/xlink"><path d="M5.17048346,10.9047981 L6.23579304,10.9047981 L6.23579304,0.834908564 L5.17048346,0.834908564 L5.17048346,10.9047981 Z M3.86089907,3.39062104 C3.96494204,3.39062104 4.05541419,3.35344318 4.13231552,3.27908745 C4.20921685,3.20473173 4.24766751,3.12294043 4.24766751,3.03371356 C4.24766751,2.93598889 4.20921685,2.85207315 4.13231552,2.78196632 C4.05541419,2.7118595 3.96494204,2.67680608 3.86089907,2.67680608 L2.40882103,2.67680608 C2.30477806,2.67680608 2.21430591,2.7118595 2.13740458,2.78196632 C2.06050325,2.85207315 2.02205259,2.93598889 2.02205259,3.03371356 C2.02205259,3.12294043 2.06050325,3.20473173 2.13740458,3.27908745 C2.21430591,3.35344318 2.30477806,3.39062104 2.40882103,3.39062104 L3.86089907,3.39062104 Z M3.86089907,5.04131812 C3.96494204,5.04131812 4.05541419,5.00520249 4.13231552,4.93297121 C4.20921685,4.86073994 4.24766751,4.77576197 4.24766751,4.6780373 C4.24766751,4.58456153 4.20921685,4.50277023 4.13231552,4.43266341 C4.05541419,4.36255658 3.96494204,4.32750317 3.86089907,4.32750317 L2.40882103,4.32750317 C2.30477806,4.32750317 2.21430591,4.36255658 2.13740458,4.43266341 C2.06050325,4.50277023 2.02205259,4.58456153 2.02205259,4.6780373 C2.02205259,4.77576197 2.06050325,4.86073994 2.13740458,4.93297121 C2.21430591,5.00520249 2.30477806,5.04131812 2.40882103,5.04131812 L3.86089907,5.04131812 Z M3.86089907,6.68564186 C3.96494204,6.68564186 4.05541419,6.65058845 4.13231552,6.58048162 C4.20921685,6.5103748 4.24766751,6.4285835 4.24766751,6.33510773 C4.24766751,6.23738306 4.20921685,6.15346732 4.13231552,6.08336049 C4.05541419,6.01325367 3.96494204,5.97820025 3.86089907,5.97820025 L2.40882103,5.97820025 C2.30477806,5.97820025 2.21430591,6.01325367 2.13740458,6.08336049 C2.06050325,6.15346732 2.02205259,6.23738306 2.02205259,6.33510773 C2.02205259,6.4285835 2.06050325,6.5103748 2.13740458,6.58048162 C2.21430591,6.65058845 2.30477806,6.68564186 2.40882103,6.68564186 L3.86089907,6.68564186 Z M2.13061917,11.7333333 L13.8693808,11.7333333 C14.5841108,11.7333333 15.1178965,11.5686885 15.4707379,11.2393989 C15.8235793,10.9101092 16,10.4161748 16,9.75759551 L16,1.97573782 C16,1.31715855 15.8235793,0.823224093 15.4707379,0.493934456 C15.1178965,0.164644819 14.5841108,0 13.8693808,0 L2.13061917,0 C1.42041278,0 0.887757987,0.164644819 0.532654792,0.493934456 C0.177551597,0.823224093 0,1.31715855 0,1.97573782 L0,9.75759551 C0,10.4161748 0.177551597,10.9101092 0.532654792,11.2393989 C0.887757987,11.5686885 1.42041278,11.7333333 2.13061917,11.7333333 Z M2.14418999,10.7072243 C1.80491942,10.7072243 1.54481199,10.6233086 1.36386768,10.4554771 C1.18292338,10.2876456 1.09245123,10.0380228 1.09245123,9.70660873 L1.09245123,2.02672461 C1.09245123,1.69531052 1.18292338,1.44568773 1.36386768,1.27785624 C1.54481199,1.11002475 1.80491942,1.026109 2.14418999,1.026109 L13.85581,1.026109 C14.190557,1.026109 14.4495335,1.11002475 14.6327396,1.27785624 C14.8159457,1.44568773 14.9075488,1.69531052 14.9075488,2.02672461 L14.9075488,9.70660873 C14.9075488,10.0380228 14.8159457,10.2876456 14.6327396,10.4554771 C14.4495335,10.6233086 14.190557,10.7072243 13.85581,10.7072243 L2.14418999,10.7072243 Z" fill-rule="nonzero" transform="translate(0, 2)" fill="#EDECEC"/></svg>