<?xml version="1.0" encoding="UTF-8"?>
<svg width="24px" height="24px" viewBox="0 0 24 24" version="1.1" xmlns="http://www.w3.org/2000/svg" xmlns:xlink="http://www.w3.org/1999/xlink">
    <title>sort-up</title>
    <g id="sort-up" stroke="none" stroke-width="1" fill="none" fill-rule="evenodd">
        <path d="M19.8410256,19.8301026 C20.3401709,19.3375143 20.6581197,18.7491448 20.7948718,18.0649943 C20.9316239,17.3808438 21,16.6077537 21,15.7457241 L21,8.25427594 C21,7.39224629 20.9316239,6.61915621 20.7948718,5.9350057 C20.6581197,5.25085519 20.3401709,4.66248575 19.8410256,4.16989738 C19.3418803,3.6704675 18.7487179,3.35062714 18.0615385,3.21037628 C17.374359,3.07012543 16.6034188,3 15.7487179,3 L8.26153846,3 C7.40683761,3 6.63418803,3.07012543 5.94358974,3.21037628 C5.25299145,3.35062714 4.65811966,3.6704675 4.15897436,4.16989738 C3.65982906,4.66248575 3.34188034,5.25085519 3.20512821,5.9350057 C3.06837607,6.61915621 3,7.39224629 3,8.25427594 L3,15.7662486 C3,16.6145952 3.07008547,17.3808438 3.21025641,18.0649943 C3.35042735,18.7491448 3.66666667,19.3375143 4.15897436,19.8301026 C4.65811966,20.322691 5.25128205,20.640821 5.93846154,20.7844926 C6.62564103,20.9281642 7.38974359,21 8.23076923,21 L15.7487179,21 C16.6034188,21 17.374359,20.9298746 18.0615385,20.7896237 C18.7487179,20.6493729 19.3418803,20.3295325 19.8410256,19.8301026 Z M19.2564103,16.0125428 C19.2564103,16.5188141 19.2102564,16.9994299 19.1179487,17.45439 C19.025641,17.9093501 18.842735,18.277081 18.5692308,18.5575827 C18.2888889,18.8380844 17.9179487,19.0262258 17.4564103,19.1220068 C16.9948718,19.2177879 16.5145299,19.2656784 16.0153846,19.2656784 L8.01538462,19.2656784 C7.5025641,19.2656784 7.01538462,19.2194983 6.55384615,19.127138 C6.09230769,19.0347777 5.71794872,18.8449259 5.43076923,18.5575827 C5.15042735,18.2839225 4.96752137,17.9161916 4.88205128,17.45439 C4.7965812,16.9925884 4.75384615,16.5051311 4.75384615,15.9920182 L4.75384615,7.98745724 C4.75384615,7.48118586 4.7965812,7.00057013 4.88205128,6.54561003 C4.96752137,6.09064994 5.15042735,5.72291904 5.43076923,5.44241733 C5.71794872,5.16191562 6.09059829,4.97377423 6.54871795,4.87799316 C7.00683761,4.78221209 7.48888889,4.73432155 7.99487179,4.73432155 L16.0153846,4.73432155 C16.5145299,4.73432155 16.9948718,4.78221209 17.4564103,4.87799316 C17.9179487,4.97377423 18.2888889,5.16191562 18.5692308,5.44241733 C18.842735,5.72291904 19.025641,6.09064994 19.1179487,6.54561003 C19.2102564,7.00057013 19.2564103,7.48118586 19.2564103,7.98745724 L19.2564103,16.0125428 Z M12.0051282,16.9669327 C12.2376068,16.9669327 12.4290598,16.8916762 12.5794872,16.7411631 C12.7299145,16.5906499 12.8051282,16.4025086 12.8051282,16.1767389 L12.8051282,11.4663626 L12.7230769,9.44469783 L13.6564103,10.5735462 L14.7641026,11.722919 C14.9076923,11.8734322 15.0957265,11.9486887 15.3282051,11.9486887 C15.5401709,11.9486887 15.7179487,11.8785633 15.8615385,11.7383124 C16.0051282,11.5980616 16.0769231,11.4218928 16.0769231,11.2098062 C16.0769231,10.9977195 16.0051282,10.8164196 15.8615385,10.6659065 L12.6410256,7.43329532 C12.442735,7.23489168 12.2307692,7.13568985 12.0051282,7.13568985 C11.7931624,7.13568985 11.5880342,7.23489168 11.3897436,7.43329532 L8.16923077,10.6659065 C8.02564103,10.8095781 7.95384615,10.990878 7.95384615,11.2098062 C7.95384615,11.4218928 8.02564103,11.5980616 8.16923077,11.7383124 C8.31282051,11.8785633 8.49059829,11.9486887 8.7025641,11.9486887 C8.92136752,11.9486887 9.10598291,11.8734322 9.25641026,11.722919 L10.374359,10.5735462 L11.2974359,9.45496009 L11.2153846,11.4663626 L11.2153846,16.1767389 C11.2153846,16.4025086 11.2905983,16.5906499 11.4410256,16.7411631 C11.591453,16.8916762 11.7794872,16.9669327 12.0051282,16.9669327 Z" id="Shape" fill="#B7BBB9" fill-rule="nonzero"></path>
    </g>
</svg>