<?xml version="1.0" encoding="UTF-8"?>
<svg width="24px" height="24px" viewBox="0 0 24 24" version="1.1" xmlns="http://www.w3.org/2000/svg" xmlns:xlink="http://www.w3.org/1999/xlink">
    <title>sort-down</title>
    <g id="sort-down" stroke="none" stroke-width="1" fill="none" fill-rule="evenodd">
        <path d="M19.8410256,4.16989738 C20.3401709,4.66248575 20.6581197,5.25085519 20.7948718,5.9350057 C20.9316239,6.61915621 21,7.39224629 21,8.25427594 L21,15.7457241 C21,16.6077537 20.9316239,17.3808438 20.7948718,18.0649943 C20.6581197,18.7491448 20.3401709,19.3375143 19.8410256,19.8301026 C19.3418803,20.3295325 18.7487179,20.6493729 18.0615385,20.7896237 C17.374359,20.9298746 16.6034188,21 15.7487179,21 L8.26153846,21 C7.40683761,21 6.63418803,20.9298746 5.94358974,20.7896237 C5.25299145,20.6493729 4.65811966,20.3295325 4.15897436,19.8301026 C3.65982906,19.3375143 3.34188034,18.7491448 3.20512821,18.0649943 C3.06837607,17.3808438 3,16.6077537 3,15.7457241 L3,8.23375143 C3,7.38540479 3.07008547,6.61915621 3.21025641,5.9350057 C3.35042735,5.25085519 3.66666667,4.66248575 4.15897436,4.16989738 C4.65811966,3.67730901 5.25128205,3.35917902 5.93846154,3.21550741 C6.62564103,3.0718358 7.38974359,3 8.23076923,3 L15.7487179,3 C16.6034188,3 17.374359,3.07012543 18.0615385,3.21037628 C18.7487179,3.35062714 19.3418803,3.6704675 19.8410256,4.16989738 Z M19.2564103,7.98745724 C19.2564103,7.48118586 19.2102564,7.00057013 19.1179487,6.54561003 C19.025641,6.09064994 18.842735,5.72291904 18.5692308,5.44241733 C18.2888889,5.16191562 17.9179487,4.97377423 17.4564103,4.87799316 C16.9948718,4.78221209 16.5145299,4.73432155 16.0153846,4.73432155 L8.01538462,4.73432155 C7.5025641,4.73432155 7.01538462,4.78050171 6.55384615,4.87286203 C6.09230769,4.96522235 5.71794872,5.15507412 5.43076923,5.44241733 C5.15042735,5.71607754 4.96752137,6.08380844 4.88205128,6.54561003 C4.7965812,7.00741163 4.75384615,7.49486887 4.75384615,8.00798176 L4.75384615,16.0125428 C4.75384615,16.5188141 4.7965812,16.9994299 4.88205128,17.45439 C4.96752137,17.9093501 5.15042735,18.277081 5.43076923,18.5575827 C5.71794872,18.8380844 6.09059829,19.0262258 6.54871795,19.1220068 C7.00683761,19.2177879 7.48888889,19.2656784 7.99487179,19.2656784 L16.0153846,19.2656784 C16.5145299,19.2656784 16.9948718,19.2177879 17.4564103,19.1220068 C17.9179487,19.0262258 18.2888889,18.8380844 18.5692308,18.5575827 C18.842735,18.277081 19.025641,17.9093501 19.1179487,17.45439 C19.2102564,16.9994299 19.2564103,16.5188141 19.2564103,16.0125428 L19.2564103,7.98745724 Z M12.0051282,7.03306727 C12.2376068,7.03306727 12.4290598,7.10832383 12.5794872,7.25883694 C12.7299145,7.40935006 12.8051282,7.59749145 12.8051282,7.82326112 L12.8051282,12.5336374 L12.7230769,14.5553022 L13.6564103,13.4264538 L14.7641026,12.277081 C14.9076923,12.1265678 15.0957265,12.0513113 15.3282051,12.0513113 C15.5401709,12.0513113 15.7179487,12.1214367 15.8615385,12.2616876 C16.0051282,12.4019384 16.0769231,12.5781072 16.0769231,12.7901938 C16.0769231,13.0022805 16.0051282,13.1835804 15.8615385,13.3340935 L12.6410256,16.5667047 C12.442735,16.7651083 12.2307692,16.8643101 12.0051282,16.8643101 C11.7931624,16.8643101 11.5880342,16.7651083 11.3897436,16.5667047 L8.16923077,13.3340935 C8.02564103,13.1904219 7.95384615,13.009122 7.95384615,12.7901938 C7.95384615,12.5781072 8.02564103,12.4019384 8.16923077,12.2616876 C8.31282051,12.1214367 8.49059829,12.0513113 8.7025641,12.0513113 C8.92136752,12.0513113 9.10598291,12.1265678 9.25641026,12.277081 L10.374359,13.4264538 L11.2974359,14.5450399 L11.2153846,12.5336374 L11.2153846,7.82326112 C11.2153846,7.59749145 11.2905983,7.40935006 11.4410256,7.25883694 C11.591453,7.10832383 11.7794872,7.03306727 12.0051282,7.03306727 Z" id="Shape" fill="#B7BBB9" fill-rule="nonzero"></path>
    </g>
</svg>