<?xml version="1.0" encoding="UTF-8"?>
<svg width="24px" height="24px" viewBox="0 0 24 24" version="1.1" xmlns="http://www.w3.org/2000/svg" xmlns:xlink="http://www.w3.org/1999/xlink">
    <title>unread</title>
    <g id="unread" stroke="none" stroke-width="1" fill="none" fill-rule="evenodd">
        <path d="M4.64371329,20 C3.77619322,20 3.11869433,19.7850108 2.6712166,19.3550323 C2.22373887,18.9250538 2,18.2878402 2,17.4433916 L2,8.55660843 C2,7.71269148 2.21312236,7.07561084 2.63936708,6.6453665 C3.06561181,6.21512217 3.65961541,6 4.42137788,6 L19.3562867,6 C20.2238068,6 20.8813057,6.21512217 21.3287834,6.6453665 C21.7762611,7.07561084 22,7.71269148 22,8.55660843 L22,17.4433916 C22,18.2878402 21.7868776,18.9250538 21.3606329,19.3550323 C20.9343882,19.7850108 20.3403846,20 19.5786221,20 L4.64371329,20 Z M4.62456283,18.6334979 L19.3754372,18.6334979 C19.7659615,18.6334979 20.06843,18.531254 20.2828427,18.326766 C20.4972553,18.1222781 20.6044616,17.8212179 20.6044616,17.4235853 L20.6044616,8.57721231 C20.6044616,8.17957969 20.4972553,7.87712369 20.2828427,7.66984428 C20.06843,7.46256488 19.7659615,7.35892518 19.3754372,7.35892518 L4.62456283,7.35892518 C4.23403846,7.35892518 3.93170577,7.46256488 3.71756477,7.66984428 C3.50342377,7.87712369 3.39635326,8.17674389 3.39635326,8.5687049 L3.39635326,17.4158754 C3.39635326,17.8186479 3.50342377,18.1222781 3.71756477,18.326766 C3.93170577,18.531254 4.23403846,18.6334979 4.62456283,18.6334979 Z M11.9961292,15.1618116 C11.7200548,15.1618116 11.4540084,15.1098145 11.1979899,15.0058204 C10.9419714,14.9018262 10.6935814,14.7436638 10.4528199,14.5313331 L2.74428712,7.73378276 L3.66500289,6.83106722 L11.2389393,13.5010065 C11.4761695,13.7161729 11.7285661,13.8237562 11.9961292,13.8237562 C12.2636017,13.8237562 12.5185789,13.7161729 12.7610607,13.5010065 L20.3280704,6.83106722 L21.2565278,7.73378276 L13.5393026,14.5313331 C13.2985411,14.7436638 13.0501737,14.9018262 12.7942005,15.0058204 C12.5382273,15.1098145 12.2722035,15.1618116 11.9961292,15.1618116 Z M3.79416658,18.9033422 L2.87277172,17.9937144 L8.69980646,12.2984049 L9.62459679,13.1969996 L3.79416658,18.9033422 Z M20.2137109,18.911052 L14.3675257,13.1969996 L15.3011443,12.2984049 L21.1360565,18.0014242 L20.2137109,18.911052 Z" id="Shape" fill="#B7BBB9" fill-rule="nonzero"></path>
    </g>
</svg>